<svg width="26" height="21" viewBox="0 0 26 21" fill="none" xmlns="http://www.w3.org/2000/svg">
<path d="M25.875 8.57812C25.875 7.99414 25.3809 7.5 24.7969 7.5H21.7422L16.9355 0.941406C16.4863 0.267578 15.5879 0.132812 14.959 0.626953C14.2852 1.07617 14.1504 1.97461 14.6445 2.60352L18.1934 7.5H7.63672L11.1855 2.60352C11.6797 1.97461 11.5449 1.07617 10.8711 0.626953C10.2422 0.132812 9.34375 0.267578 8.89453 0.941406L4.08789 7.5H1.07812C0.449219 7.5 0 7.99414 0 8.57812V9.29688C0 9.92578 0.449219 10.375 1.07812 10.375H1.4375L2.60547 18.5957C2.74023 19.6738 3.63867 20.4375 4.7168 20.4375H21.1133C22.1914 20.4375 23.0898 19.6738 23.2246 18.5957L24.4375 10.375H24.7969C25.3809 10.375 25.875 9.92578 25.875 9.29688V8.57812ZM14.0156 16.4844C14.0156 17.1133 13.5215 17.5625 12.9375 17.5625C12.3086 17.5625 11.8594 17.1133 11.8594 16.4844V11.4531C11.8594 10.8691 12.3086 10.375 12.9375 10.375C13.5215 10.375 14.0156 10.8691 14.0156 11.4531V16.4844ZM19.0469 16.4844C19.0469 17.1133 18.5527 17.5625 17.9688 17.5625C17.3398 17.5625 16.8906 17.1133 16.8906 16.4844V11.4531C16.8906 10.8691 17.3398 10.375 17.9688 10.375C18.5527 10.375 19.0469 10.8691 19.0469 11.4531V16.4844ZM8.98438 16.4844C8.98438 17.1133 8.49023 17.5625 7.90625 17.5625C7.27734 17.5625 6.82812 17.1133 6.82812 16.4844V11.4531C6.82812 10.8691 7.27734 10.375 7.90625 10.375C8.49023 10.375 8.98438 10.8691 8.98438 11.4531V16.4844Z" fill="white"/>
</svg>
