<svg width="37" height="37" viewBox="0 0 37 37" fill="none" xmlns="http://www.w3.org/2000/svg">
<rect width="37" height="37" rx="10" fill="#5F85DB"/>
<path d="M24.8125 17.0312H20.0312V12.25C20.0312 11.6855 19.5332 11.1875 18.9688 11.1875H17.9062C17.3086 11.1875 16.8438 11.6855 16.8438 12.25V17.0312H12.0625C11.4648 17.0312 11 17.5293 11 18.0938V19.1562C11 19.7539 11.4648 20.2188 12.0625 20.2188H16.8438V25C16.8438 25.5977 17.3086 26.0625 17.9062 26.0625H18.9688C19.5332 26.0625 20.0312 25.5977 20.0312 25V20.2188H24.8125C25.377 20.2188 25.875 19.7539 25.875 19.1562V18.0938C25.875 17.5293 25.377 17.0312 24.8125 17.0312Z" fill="white"/>
</svg>
